<svg xmlns="http://www.w3.org/2000/svg" viewBox="0 0 400 225">
  <defs>
    <linearGradient id="lbg" x1="0" y1="0" x2="0" y2="1"><stop offset="0%" stop-color="#11464A"/><stop offset="100%" stop-color="#042B2E"/></linearGradient>
    <linearGradient id="lgold" x1="0" y1="0" x2="1" y2="0"><stop offset="0%" stop-color="#E08D12"/><stop offset="100%" stop-color="#F4BE52"/></linearGradient>
  </defs>
  <rect width="400" height="225" fill="url(#lbg)"/>
  <!-- Stars scattered -->
  <circle cx="25" cy="18" r="1" fill="white" opacity="0.7"/>
  <circle cx="70" cy="30" r="1.2" fill="white" opacity="0.8"/>
  <circle cx="130" cy="15" r="1" fill="white" opacity="0.6"/>
  <circle cx="200" cy="22" r="0.8" fill="white" opacity="0.7"/>
  <circle cx="260" cy="10" r="1" fill="white" opacity="0.5"/>
  <circle cx="320" cy="28" r="1.2" fill="white" opacity="0.8"/>
  <circle cx="370" cy="15" r="1" fill="white" opacity="0.6"/>
  <!-- Luxury hotel building -->
  <rect x="110" y="80" width="180" height="145" rx="4" fill="#0E686C" opacity="0.7"/>
  <rect x="130" y="60" width="140" height="25" rx="2" fill="#0E8186" opacity="0.6"/>
  <rect x="150" y="45" width="100" height="18" rx="2" fill="#16A0A5" opacity="0.5"/>
  <rect x="170" y="32" width="60" height="16" rx="1" fill="#38BCC0" opacity="0.4"/>
  <!-- Hotel windows -->
  <rect x="125" y="95" width="18" height="22" rx="2" fill="#FCEBC8" opacity="0.6"/>
  <rect x="155" y="95" width="18" height="22" rx="2" fill="#FCEBC8" opacity="0.7"/>
  <rect x="185" y="95" width="18" height="22" rx="2" fill="#F4BE52" opacity="0.8"/>
  <rect x="215" y="95" width="18" height="22" rx="2" fill="#FCEBC8" opacity="0.6"/>
  <rect x="245" y="95" width="18" height="22" rx="2" fill="#FCEBC8" opacity="0.7"/>
  <rect x="125" y="130" width="18" height="22" rx="2" fill="#FCEBC8" opacity="0.7"/>
  <rect x="155" y="130" width="18" height="22" rx="2" fill="#F4BE52" opacity="0.9"/>
  <rect x="185" y="130" width="18" height="22" rx="2" fill="#FCEBC8" opacity="0.6"/>
  <rect x="215" y="130" width="18" height="22" rx="2" fill="#FCEBC8" opacity="0.8"/>
  <rect x="245" y="130" width="18" height="22" rx="2" fill="#F4BE52" opacity="0.7"/>
  <rect x="125" y="165" width="18" height="22" rx="2" fill="#F4BE52" opacity="0.8"/>
  <rect x="155" y="165" width="18" height="22" rx="2" fill="#FCEBC8" opacity="0.6"/>
  <rect x="215" y="165" width="18" height="22" rx="2" fill="#FCEBC8" opacity="0.7"/>
  <rect x="245" y="165" width="18" height="22" rx="2" fill="#F4BE52" opacity="0.8"/>
  <!-- Hotel entrance arch -->
  <path d="M177,225 Q177,195 200,195 Q223,195 223,225" fill="#16A0A5" opacity="0.5"/>
  <!-- Gold trim -->
  <rect x="110" y="78" width="180" height="4" fill="url(#lgold)" opacity="0.7"/>
  <!-- Pool reflection -->
  <ellipse cx="200" cy="218" rx="60" ry="8" fill="#38BCC0" opacity="0.3"/>
  <!-- Palm tree suggestion -->
  <line x1="75" y1="225" x2="85" y2="120" stroke="#11464A" stroke-width="5"/>
  <ellipse cx="85" cy="118" rx="22" ry="10" fill="#16A0A5" opacity="0.6"/>
  <ellipse cx="73" cy="125" rx="18" ry="8" fill="#0E8186" opacity="0.5" transform="rotate(-20 73 125)"/>
  <ellipse cx="97" cy="122" rx="18" ry="8" fill="#0E8186" opacity="0.5" transform="rotate(20 97 122)"/>
</svg>
